<?xml version="1.0" encoding="utf-8"?>
<!-- Generator: Adobe Illustrator 27.2.0, SVG Export Plug-In . SVG Version: 6.00 Build 0)  -->
<svg version="1.1" id="Layer_1" xmlns="http://www.w3.org/2000/svg" xmlns:xlink="http://www.w3.org/1999/xlink" x="0px" y="0px"
	 viewBox="0 0 595.28 370.65" style="enable-background:new 0 0 595.28 370.65;" xml:space="preserve">
<g>
	<path d="M297.65,346.37c-46.51,0-92.2-17.84-135.81-53.01c-36.32-29.29-63.84-64.43-82.05-87.69c-4.4-5.62-8.87-11.32-12.67-15.83
		c-4.78,4.99-7.76,6.49-10.66,5.49c-3.67-1.27-4.14-6.01-4.14-10s0.47-8.74,4.14-10c2.9-1.01,5.88,0.5,10.66,5.49
		c3.8-4.5,8.27-10.21,12.67-15.83c18.21-23.25,45.73-58.39,82.05-87.69c43.61-35.18,89.3-53.01,135.81-53.01
		s92.2,17.84,135.81,53.01c36.32,29.29,63.84,64.43,82.05,87.69c4.4,5.62,8.87,11.32,12.67,15.83c4.78-4.99,7.76-6.49,10.66-5.49
		c3.67,1.27,4.14,6.01,4.14,10s-0.47,8.74-4.14,10c-2.91,1-5.88-0.5-10.66-5.49c-3.8,4.5-8.27,10.21-12.67,15.83
		c-18.21,23.25-45.73,58.39-82.05,87.69C389.85,328.53,344.16,346.37,297.65,346.37z M71.17,185.33c3.51,4.12,7.83,9.59,13.35,16.64
		c18.04,23.04,45.31,57.85,81.09,86.71c42.52,34.29,86.94,51.68,132.04,51.68c45.1,0,89.53-17.39,132.04-51.68
		c35.78-28.86,63.05-63.68,81.09-86.71c5.52-7.05,9.84-12.52,13.35-16.64c-3.51-4.12-7.83-9.59-13.35-16.64
		c-18.04-23.04-45.31-57.85-81.09-86.72c-42.52-34.29-86.94-51.68-132.04-51.68c-45.1,0-89.53,17.39-132.04,51.68
		c-35.78,28.86-63.05,63.68-81.09,86.72C79,175.73,74.67,181.21,71.17,185.33z M532.15,185.33c1.88,2.01,3.42,3.43,4.48,4.01
		c0.16-0.64,0.35-1.84,0.35-4.01s-0.19-3.37-0.35-4.01C535.57,181.89,534.02,183.32,532.15,185.33z M58.67,181.32
		c-0.16,0.64-0.35,1.85-0.35,4.01s0.19,3.37,0.35,4.01c1.06-0.57,2.61-2,4.48-4.01C61.28,183.32,59.74,181.89,58.67,181.32z"/>
</g>
<g>
	<path d="M297.65,346.37c-88.8,0-161.04-72.24-161.04-161.04c0-88.8,72.24-161.04,161.04-161.04c88.8,0,161.04,72.24,161.04,161.04
		C458.69,274.12,386.45,346.37,297.65,346.37z M297.65,30.28c-85.49,0-155.04,69.55-155.04,155.04s69.55,155.04,155.04,155.04
		c85.49,0,155.04-69.55,155.04-155.04S383.14,30.28,297.65,30.28z"/>
</g>
<g>
	<path d="M297.65,233.4c26.55,0,48.07-21.52,48.07-48.07s-21.52-48.07-48.07-48.07c-26.55,0-48.07,21.52-48.07,48.07
		S271.1,233.4,297.65,233.4"/>
	<path d="M251.32,180.33c7.44,0,13.46-6.03,13.46-13.46c0-7.44-6.03-13.46-13.46-13.46c-7.44,0-13.46,6.03-13.46,13.46
		C237.86,174.3,243.89,180.33,251.32,180.33"/>
</g>
</svg>
